<?xml version="1.0" encoding="utf-8"?>
<!-- Generator: Adobe Illustrator 15.0.0, SVG Export Plug-In . SVG Version: 6.00 Build 0)  -->
<!DOCTYPE svg PUBLIC "-//W3C//DTD SVG 1.1//EN" "http://www.w3.org/Graphics/SVG/1.1/DTD/svg11.dtd">
<svg version="1.1" id="Слой_1" xmlns="http://www.w3.org/2000/svg" xmlns:xlink="http://www.w3.org/1999/xlink" x="0px" y="0px"
	 width="63.865px" height="63.865px" viewBox="0 0 63.865 63.865" enable-background="new 0 0 63.865 63.865" xml:space="preserve">
<g>
	<g>
		<path fill="#00A38E" d="M30.678,38.8c0.426,0.063,0.848,0.154,1.267,0.272c0.418,0.118,0.793,0.257,1.124,0.414v0.899h-7.881
			v-0.899c0.299-0.174,0.619-0.315,0.958-0.426s0.667-0.197,0.982-0.261V25.404c-0.363-0.063-0.71-0.153-1.041-0.271
			c-0.332-0.118-0.632-0.257-0.899-0.414v-0.899h2.981c0.631,0,1.353-0.031,2.166-0.095c0.813-0.063,1.558-0.095,2.236-0.095
			c0.836,0,1.652,0.083,2.449,0.248c0.797,0.166,1.507,0.446,2.13,0.841s1.124,0.919,1.503,1.573
			c0.379,0.655,0.568,1.472,0.568,2.45c0,0.931-0.186,1.735-0.557,2.413c-0.37,0.679-0.863,1.239-1.479,1.681
			c-0.615,0.442-1.325,0.77-2.13,0.982s-1.634,0.319-2.485,0.319c-0.079,0-0.205,0-0.379,0s-0.359-0.004-0.556-0.012
			c-0.198-0.008-0.387-0.016-0.568-0.023s-0.312-0.02-0.391-0.036V38.8z M31.956,25.168c-0.316,0-0.564,0.012-0.746,0.035
			c-0.182,0.024-0.358,0.06-0.532,0.107v7.194c0.143,0.047,0.355,0.075,0.639,0.083c0.284,0.008,0.513,0.012,0.687,0.012
			c0.426,0,0.836-0.071,1.23-0.213c0.395-0.143,0.746-0.363,1.054-0.663s0.556-0.687,0.745-1.159
			c0.189-0.474,0.284-1.042,0.284-1.704c0-1.263-0.308-2.193-0.923-2.793S32.966,25.168,31.956,25.168z"/>
	</g>
</g>
<g>
	<path fill="#00A38E" d="M32.204,46.341c-7.903,0-14.333-6.43-14.333-14.333s6.43-14.333,14.333-14.333s14.333,6.43,14.333,14.333
		S40.107,46.341,32.204,46.341z M32.204,19.675c-6.8,0-12.333,5.533-12.333,12.333c0,6.801,5.533,12.333,12.333,12.333
		c6.801,0,12.333-5.532,12.333-12.333C44.537,25.208,39.005,19.675,32.204,19.675z"/>
</g>
</svg>
