<?xml version="1.0" encoding="utf-8"?>
<!-- Generator: Adobe Illustrator 15.0.0, SVG Export Plug-In . SVG Version: 6.00 Build 0)  -->
<!DOCTYPE svg PUBLIC "-//W3C//DTD SVG 1.1//EN" "http://www.w3.org/Graphics/SVG/1.1/DTD/svg11.dtd">
<svg version="1.1" id="Слой_1" xmlns="http://www.w3.org/2000/svg" xmlns:xlink="http://www.w3.org/1999/xlink" x="0px" y="0px"
	 width="200px" height="200px" viewBox="0 0 200 200" enable-background="new 0 0 200 200" xml:space="preserve">
<g>
	<polygon fill-rule="evenodd" clip-rule="evenodd" fill="#9AB9B9" points="17.209,160.102 17.209,99.962 9.017,99.962 9.017,84.065 
		89.71,40.116 170.399,84.065 170.399,99.962 162.212,99.962 162.212,160.102 	"/>
	<path fill="#FFFFFF" d="M89.71,40.686l80.189,43.677v15.1h-8.188v60.14H17.709v-60.14H9.517v-15.1L89.71,40.686 M89.71,39.547
		l-0.479,0.26L9.039,83.484l-0.521,0.284v0.594v15.1v1h1h7.192v59.14v1h1h144.003h1v-1v-59.14h7.188h1v-1v-15.1v-0.594l-0.521-0.284
		L90.188,39.808L89.71,39.547L89.71,39.547z"/>
</g>
<polygon fill-rule="evenodd" clip-rule="evenodd" fill="#15856E" points="143.414,159.602 143.414,131.369 140.859,131.369 
	140.859,124.281 165.869,109.646 190.881,124.281 190.881,131.369 188.326,131.369 188.326,159.602 "/>
<g>
	<g>
		<path fill="#126957" d="M75.349,83.603l-2.163,5.184c-0.128,0.302-0.271,0.54-0.429,0.714s-0.324,0.306-0.499,0.396
			c-0.174,0.09-0.348,0.15-0.522,0.181c-0.174,0.031-0.357,0.046-0.548,0.046c-0.2,0-0.433-0.004-0.699-0.013
			c-0.265-0.009-0.443-0.018-0.533-0.026v-1.375h0.1c0.026,0.006,0.067,0.013,0.122,0.021s0.125,0.018,0.209,0.026
			c0.069,0.006,0.145,0.012,0.226,0.018c0.082,0.006,0.155,0.009,0.222,0.009c0.194,0,0.378-0.024,0.55-0.072
			c0.173-0.048,0.288-0.13,0.346-0.246l-2.398-4.861h1.758l1.388,3.038l1.175-3.038H75.349z"/>
		<path fill="#126957" d="M80.192,90.083h-1.523v-1.68c-0.211,0.049-0.44,0.094-0.685,0.133c-0.246,0.039-0.491,0.059-0.738,0.059
			c-0.221,0-0.426-0.027-0.616-0.083c-0.19-0.055-0.356-0.145-0.499-0.27c-0.142-0.119-0.253-0.274-0.333-0.466
			c-0.08-0.191-0.12-0.419-0.12-0.684v-1.897h1.532v1.114c0,0.2,0.008,0.369,0.026,0.505c0.018,0.137,0.06,0.257,0.126,0.361
			c0.064,0.099,0.159,0.174,0.285,0.227c0.126,0.052,0.303,0.078,0.529,0.078c0.061,0,0.142-0.004,0.244-0.011
			c0.102-0.008,0.185-0.017,0.248-0.028v-2.246h1.523V90.083z"/>
		<path fill="#126957" d="M84.052,89.565c-0.104,0.087-0.198,0.165-0.28,0.234c-0.083,0.07-0.194,0.14-0.333,0.209
			c-0.137,0.067-0.269,0.118-0.398,0.152c-0.129,0.035-0.31,0.053-0.542,0.053c-0.433,0-0.792-0.146-1.077-0.436
			c-0.286-0.29-0.429-0.655-0.429-1.097c0-0.362,0.072-0.655,0.217-0.879s0.354-0.4,0.627-0.531
			c0.275-0.134,0.605-0.227,0.988-0.278c0.383-0.053,0.795-0.093,1.236-0.122v-0.026c0-0.27-0.099-0.456-0.298-0.559
			c-0.199-0.104-0.497-0.154-0.895-0.154c-0.18,0-0.39,0.032-0.631,0.098c-0.241,0.065-0.476,0.148-0.705,0.25h-0.131V85.3
			c0.151-0.043,0.395-0.095,0.731-0.154c0.336-0.06,0.676-0.089,1.018-0.089c0.842,0,1.455,0.14,1.839,0.42s0.577,0.707,0.577,1.281
			v3.325h-1.515V89.565z M84.052,88.808v-1.019c-0.258,0.026-0.467,0.049-0.626,0.068c-0.16,0.019-0.316,0.056-0.47,0.11
			c-0.133,0.047-0.237,0.117-0.311,0.211c-0.074,0.095-0.111,0.22-0.111,0.377c0,0.229,0.062,0.387,0.185,0.472
			c0.123,0.086,0.305,0.129,0.546,0.129c0.133,0,0.27-0.03,0.409-0.092C83.813,89.004,83.939,88.918,84.052,88.808z"/>
		<path fill="#126957" d="M89.092,90.214c-0.403,0-0.772-0.051-1.107-0.152s-0.626-0.259-0.873-0.471
			c-0.244-0.211-0.434-0.478-0.57-0.798c-0.136-0.321-0.205-0.699-0.205-1.134c0-0.468,0.074-0.865,0.222-1.192
			c0.148-0.328,0.348-0.598,0.601-0.81c0.244-0.203,0.53-0.354,0.859-0.451c0.33-0.097,0.672-0.146,1.029-0.146
			c0.27,0,0.54,0.031,0.81,0.094s0.541,0.162,0.814,0.298v1.306h-0.196c-0.061-0.058-0.136-0.122-0.224-0.191
			c-0.089-0.069-0.185-0.133-0.29-0.191c-0.11-0.061-0.235-0.112-0.375-0.154c-0.139-0.042-0.294-0.063-0.465-0.063
			c-0.389,0-0.69,0.136-0.903,0.407c-0.213,0.271-0.32,0.636-0.32,1.095c0,0.49,0.114,0.855,0.342,1.097
			c0.228,0.24,0.53,0.361,0.907,0.361c0.191,0,0.36-0.022,0.505-0.065c0.145-0.044,0.27-0.096,0.375-0.157
			c0.102-0.061,0.188-0.124,0.261-0.188c0.073-0.065,0.135-0.124,0.188-0.177h0.196v1.306c-0.087,0.038-0.188,0.081-0.303,0.131
			c-0.114,0.049-0.231,0.09-0.35,0.121c-0.148,0.041-0.287,0.072-0.416,0.094C89.474,90.203,89.304,90.214,89.092,90.214z"/>
		<path fill="#126957" d="M95.407,86.258h-1.515v3.825h-1.523v-3.825h-1.515v-1.063h4.552V86.258z"/>
		<path fill="#126957" d="M100.726,87.642c0,0.804-0.22,1.437-0.66,1.899s-1.061,0.694-1.865,0.694c-0.798,0-1.418-0.231-1.86-0.694
			s-0.664-1.096-0.664-1.899c0-0.813,0.222-1.448,0.664-1.908s1.063-0.69,1.86-0.69c0.801,0,1.421,0.231,1.863,0.694
			C100.505,86.2,100.726,86.835,100.726,87.642z M99.163,87.65c0-0.29-0.024-0.532-0.072-0.725
			c-0.048-0.193-0.114-0.348-0.198-0.464c-0.09-0.122-0.191-0.206-0.305-0.255c-0.113-0.048-0.242-0.071-0.387-0.071
			c-0.136,0-0.26,0.021-0.37,0.063c-0.11,0.042-0.211,0.122-0.305,0.241c-0.087,0.113-0.156,0.269-0.208,0.466
			s-0.079,0.445-0.079,0.744s0.025,0.54,0.074,0.725s0.113,0.331,0.191,0.441c0.081,0.113,0.183,0.196,0.305,0.248
			c0.122,0.053,0.257,0.078,0.405,0.078c0.122,0,0.246-0.025,0.372-0.078c0.126-0.052,0.227-0.131,0.302-0.234
			c0.09-0.125,0.158-0.275,0.205-0.451C99.14,88.204,99.163,87.961,99.163,87.65z"/>
		<path fill="#126957" d="M106.361,90.083h-1.754l-1.158-1.937h-0.391v1.937h-1.523v-4.888h1.523v1.963
			c0.215-0.003,0.375-0.034,0.48-0.094c0.105-0.059,0.221-0.217,0.346-0.472c0.041-0.087,0.084-0.183,0.131-0.287
			s0.088-0.197,0.126-0.278c0.153-0.322,0.343-0.543,0.567-0.662c0.226-0.119,0.499-0.179,0.82-0.179
			c0.113,0,0.221,0.002,0.322,0.005s0.175,0.004,0.219,0.004v1.306h-0.297c-0.093,0-0.176,0.019-0.25,0.055
			s-0.139,0.082-0.193,0.137c-0.055,0.059-0.097,0.116-0.125,0.175c-0.027,0.058-0.054,0.114-0.08,0.169
			c-0.066,0.157-0.115,0.269-0.147,0.336c-0.032,0.066-0.089,0.132-0.17,0.195L106.361,90.083z"/>
		<path fill="#126957" d="M74.735,99.738h-1.754l-1.158-1.937h-0.392v1.937h-1.523v-4.888h1.523v1.963
			c0.215-0.003,0.375-0.034,0.481-0.094c0.106-0.059,0.221-0.217,0.346-0.472c0.041-0.087,0.084-0.183,0.131-0.287
			s0.088-0.197,0.126-0.278c0.154-0.322,0.343-0.543,0.568-0.662c0.225-0.119,0.499-0.179,0.82-0.179
			c0.113,0,0.221,0.002,0.322,0.005s0.174,0.004,0.218,0.004v1.306h-0.296c-0.093,0-0.176,0.019-0.25,0.055
			c-0.074,0.036-0.139,0.082-0.194,0.137c-0.055,0.059-0.096,0.116-0.124,0.175c-0.027,0.058-0.054,0.114-0.08,0.169
			c-0.067,0.157-0.116,0.269-0.148,0.336c-0.032,0.066-0.089,0.132-0.17,0.195L74.735,99.738z"/>
		<path fill="#126957" d="M79.844,94.851l-2.468,6.681H75.74l0.74-1.91l-1.793-4.771h1.602l1.027,3.064l0.961-3.064H79.844z"/>
		<path fill="#126957" d="M85.01,99.738h-1.523v-3.808h-1.549v3.808h-1.523v-4.888h4.596V99.738z"/>
		<path fill="#126957" d="M90.837,99.738h-1.523v-3.813h-1.197c-0.009,0.209-0.016,0.377-0.02,0.505
			c-0.004,0.128-0.009,0.271-0.015,0.431c-0.02,0.468-0.06,0.849-0.117,1.143c-0.058,0.295-0.132,0.536-0.222,0.725
			c-0.087,0.188-0.176,0.336-0.268,0.441c-0.091,0.106-0.191,0.206-0.298,0.299c-0.102,0.087-0.245,0.158-0.431,0.215
			s-0.355,0.085-0.509,0.085c-0.13,0-0.26-0.005-0.39-0.015c-0.129-0.011-0.207-0.016-0.232-0.016v-1.236h0.043
			c0.011,0,0.031,0.002,0.059,0.005c0.027,0.003,0.054,0.004,0.081,0.004c0.07,0,0.142-0.008,0.218-0.023
			c0.075-0.017,0.138-0.049,0.187-0.099c0.2-0.202,0.329-0.474,0.385-0.813c0.056-0.339,0.095-0.72,0.115-1.14
			c0.011-0.229,0.023-0.485,0.035-0.769s0.021-0.555,0.026-0.816h4.073V99.738z"/>
		<path fill="#126957" d="M94.506,99.869c-0.922,0-1.63-0.221-2.122-0.662c-0.492-0.44-0.738-1.068-0.738-1.884
			c0-0.798,0.229-1.435,0.688-1.911c0.458-0.476,1.1-0.714,1.923-0.714c0.749,0,1.312,0.202,1.689,0.605
			c0.377,0.403,0.565,0.98,0.565,1.732v0.548h-3.338c0.015,0.227,0.063,0.416,0.144,0.568s0.188,0.273,0.322,0.363
			c0.13,0.09,0.283,0.154,0.457,0.193c0.174,0.039,0.364,0.059,0.57,0.059c0.177,0,0.351-0.02,0.522-0.059
			c0.171-0.039,0.328-0.091,0.47-0.154c0.125-0.056,0.24-0.114,0.346-0.179c0.106-0.063,0.192-0.12,0.259-0.17h0.161v1.258
			c-0.125,0.05-0.239,0.096-0.342,0.138s-0.244,0.085-0.424,0.128c-0.165,0.044-0.336,0.078-0.511,0.103
			C94.972,99.856,94.758,99.869,94.506,99.869z M95.011,96.666c-0.009-0.322-0.083-0.567-0.224-0.735
			c-0.141-0.169-0.356-0.253-0.646-0.253c-0.296,0-0.527,0.089-0.694,0.266s-0.259,0.418-0.276,0.723H95.011z"/>
		<path fill="#126957" d="M101.918,99.738h-1.524v-2.094h-1.575v2.094h-1.523v-4.888h1.523v1.693h1.575v-1.693h1.524V99.738z"/>
	</g>
</g>
<g>
	<g>
		<path fill="#126957" d="M75.349,131.882l-2.163,5.184c-0.128,0.302-0.271,0.54-0.429,0.714s-0.324,0.306-0.499,0.396
			c-0.174,0.09-0.348,0.15-0.522,0.181c-0.174,0.031-0.357,0.046-0.548,0.046c-0.2,0-0.433-0.004-0.699-0.013
			c-0.265-0.009-0.443-0.018-0.533-0.026v-1.375h0.1c0.026,0.006,0.067,0.013,0.122,0.021s0.125,0.018,0.209,0.026
			c0.069,0.006,0.145,0.012,0.226,0.018c0.082,0.006,0.155,0.009,0.222,0.009c0.194,0,0.378-0.024,0.55-0.072
			c0.173-0.048,0.288-0.13,0.346-0.246l-2.398-4.861h1.758l1.388,3.038l1.175-3.038H75.349z"/>
		<path fill="#126957" d="M80.192,138.362h-1.523v-1.68c-0.211,0.049-0.44,0.094-0.685,0.133c-0.246,0.039-0.491,0.059-0.738,0.059
			c-0.221,0-0.426-0.027-0.616-0.083c-0.19-0.055-0.356-0.145-0.499-0.27c-0.142-0.119-0.253-0.274-0.333-0.466
			c-0.08-0.191-0.12-0.419-0.12-0.684v-1.897h1.532v1.114c0,0.2,0.008,0.369,0.026,0.505c0.018,0.137,0.06,0.257,0.126,0.361
			c0.064,0.099,0.159,0.174,0.285,0.227c0.126,0.052,0.303,0.078,0.529,0.078c0.061,0,0.142-0.004,0.244-0.011
			c0.102-0.008,0.185-0.017,0.248-0.028v-2.246h1.523V138.362z"/>
		<path fill="#126957" d="M84.052,137.845c-0.104,0.087-0.198,0.165-0.28,0.234c-0.083,0.07-0.194,0.14-0.333,0.209
			c-0.137,0.067-0.269,0.118-0.398,0.152c-0.129,0.035-0.31,0.053-0.542,0.053c-0.433,0-0.792-0.146-1.077-0.436
			c-0.286-0.29-0.429-0.655-0.429-1.097c0-0.362,0.072-0.655,0.217-0.879s0.354-0.4,0.627-0.531
			c0.275-0.134,0.605-0.227,0.988-0.278c0.383-0.053,0.795-0.093,1.236-0.122v-0.026c0-0.27-0.099-0.456-0.298-0.559
			c-0.199-0.104-0.497-0.154-0.895-0.154c-0.18,0-0.39,0.032-0.631,0.098c-0.241,0.065-0.476,0.148-0.705,0.25h-0.131v-1.18
			c0.151-0.043,0.395-0.095,0.731-0.154c0.336-0.06,0.676-0.089,1.018-0.089c0.842,0,1.455,0.14,1.839,0.42s0.577,0.707,0.577,1.281
			v3.325h-1.515V137.845z M84.052,137.087v-1.019c-0.258,0.026-0.467,0.049-0.626,0.068c-0.16,0.019-0.316,0.056-0.47,0.11
			c-0.133,0.047-0.237,0.117-0.311,0.211c-0.074,0.095-0.111,0.22-0.111,0.377c0,0.229,0.062,0.387,0.185,0.472
			c0.123,0.086,0.305,0.129,0.546,0.129c0.133,0,0.27-0.03,0.409-0.092C83.813,137.283,83.939,137.197,84.052,137.087z"/>
		<path fill="#126957" d="M89.092,138.493c-0.403,0-0.772-0.051-1.107-0.152s-0.626-0.259-0.873-0.471
			c-0.244-0.211-0.434-0.478-0.57-0.798c-0.136-0.321-0.205-0.699-0.205-1.134c0-0.468,0.074-0.865,0.222-1.192
			c0.148-0.328,0.348-0.598,0.601-0.81c0.244-0.203,0.53-0.354,0.859-0.451c0.33-0.097,0.672-0.146,1.029-0.146
			c0.27,0,0.54,0.031,0.81,0.094s0.541,0.162,0.814,0.298v1.306h-0.196c-0.061-0.058-0.136-0.122-0.224-0.191
			c-0.089-0.069-0.185-0.133-0.29-0.191c-0.11-0.061-0.235-0.112-0.375-0.154c-0.139-0.042-0.294-0.063-0.465-0.063
			c-0.389,0-0.69,0.136-0.903,0.407c-0.213,0.271-0.32,0.636-0.32,1.095c0,0.49,0.114,0.855,0.342,1.097
			c0.228,0.24,0.53,0.361,0.907,0.361c0.191,0,0.36-0.022,0.505-0.065c0.145-0.044,0.27-0.096,0.375-0.157
			c0.102-0.061,0.188-0.124,0.261-0.188c0.073-0.065,0.135-0.124,0.188-0.177h0.196v1.306c-0.087,0.038-0.188,0.081-0.303,0.131
			c-0.114,0.049-0.231,0.09-0.35,0.121c-0.148,0.041-0.287,0.072-0.416,0.094C89.474,138.482,89.304,138.493,89.092,138.493z"/>
		<path fill="#126957" d="M95.407,134.537h-1.515v3.825h-1.523v-3.825h-1.515v-1.063h4.552V134.537z"/>
		<path fill="#126957" d="M100.726,135.921c0,0.804-0.22,1.437-0.66,1.899s-1.061,0.694-1.865,0.694
			c-0.798,0-1.418-0.231-1.86-0.694s-0.664-1.096-0.664-1.899c0-0.813,0.222-1.448,0.664-1.908s1.063-0.69,1.86-0.69
			c0.801,0,1.421,0.231,1.863,0.694C100.505,134.479,100.726,135.114,100.726,135.921z M99.163,135.93
			c0-0.29-0.024-0.532-0.072-0.725c-0.048-0.193-0.114-0.348-0.198-0.464c-0.09-0.122-0.191-0.206-0.305-0.255
			c-0.113-0.048-0.242-0.071-0.387-0.071c-0.136,0-0.26,0.021-0.37,0.063c-0.11,0.042-0.211,0.122-0.305,0.241
			c-0.087,0.113-0.156,0.269-0.208,0.466s-0.079,0.445-0.079,0.744s0.025,0.54,0.074,0.725s0.113,0.331,0.191,0.441
			c0.081,0.113,0.183,0.196,0.305,0.248c0.122,0.053,0.257,0.078,0.405,0.078c0.122,0,0.246-0.025,0.372-0.078
			c0.126-0.052,0.227-0.131,0.302-0.234c0.09-0.125,0.158-0.275,0.205-0.451C99.14,136.483,99.163,136.24,99.163,135.93z"/>
		<path fill="#126957" d="M106.361,138.362h-1.754l-1.158-1.937h-0.391v1.937h-1.523v-4.888h1.523v1.963
			c0.215-0.003,0.375-0.034,0.48-0.094c0.105-0.059,0.221-0.217,0.346-0.472c0.041-0.087,0.084-0.183,0.131-0.287
			s0.088-0.197,0.126-0.278c0.153-0.322,0.343-0.543,0.567-0.662c0.226-0.119,0.499-0.179,0.82-0.179
			c0.113,0,0.221,0.002,0.322,0.005s0.175,0.004,0.219,0.004v1.306h-0.297c-0.093,0-0.176,0.019-0.25,0.055
			s-0.139,0.082-0.193,0.137c-0.055,0.059-0.097,0.116-0.125,0.175c-0.027,0.058-0.054,0.114-0.08,0.169
			c-0.066,0.157-0.115,0.269-0.147,0.336c-0.032,0.066-0.089,0.132-0.17,0.195L106.361,138.362z"/>
		<path fill="#126957" d="M72.306,148.148c-0.403,0-0.772-0.051-1.107-0.152s-0.626-0.259-0.873-0.471
			c-0.244-0.211-0.434-0.478-0.57-0.798c-0.136-0.321-0.205-0.699-0.205-1.134c0-0.468,0.074-0.865,0.222-1.192
			c0.148-0.328,0.348-0.598,0.601-0.81c0.244-0.203,0.53-0.354,0.859-0.451c0.33-0.097,0.672-0.146,1.029-0.146
			c0.27,0,0.54,0.031,0.81,0.094s0.541,0.162,0.814,0.298v1.306H73.69c-0.061-0.058-0.136-0.122-0.224-0.191
			c-0.089-0.069-0.185-0.133-0.29-0.191c-0.11-0.061-0.235-0.112-0.375-0.154c-0.139-0.042-0.294-0.063-0.465-0.063
			c-0.389,0-0.69,0.136-0.903,0.407c-0.213,0.271-0.32,0.636-0.32,1.095c0,0.49,0.114,0.855,0.342,1.097
			c0.228,0.24,0.53,0.361,0.907,0.361c0.191,0,0.36-0.022,0.505-0.065c0.145-0.044,0.27-0.096,0.375-0.157
			c0.102-0.061,0.188-0.124,0.261-0.188c0.073-0.065,0.135-0.124,0.188-0.177h0.196v1.306c-0.087,0.038-0.188,0.081-0.303,0.131
			c-0.114,0.049-0.231,0.09-0.35,0.121c-0.148,0.041-0.287,0.072-0.416,0.094C72.688,148.138,72.518,148.148,72.306,148.148z"/>
		<path fill="#126957" d="M79.204,146.542c0,0.235-0.046,0.444-0.139,0.627s-0.217,0.335-0.374,0.457
			c-0.197,0.153-0.406,0.258-0.625,0.312c-0.219,0.054-0.479,0.08-0.781,0.08h-2.677v-4.888h2.55c0.357,0,0.62,0.012,0.788,0.035
			c0.168,0.023,0.333,0.08,0.496,0.17c0.171,0.093,0.299,0.216,0.383,0.37c0.084,0.153,0.126,0.336,0.126,0.548
			c0,0.244-0.065,0.456-0.196,0.636c-0.13,0.18-0.294,0.317-0.492,0.413v0.048c0.27,0.067,0.494,0.201,0.672,0.402
			C79.115,145.954,79.204,146.218,79.204,146.542z M77.433,144.605c0-0.188-0.055-0.319-0.163-0.392
			c-0.109-0.072-0.282-0.108-0.52-0.108h-0.631v0.975h0.657c0.212,0,0.375-0.042,0.487-0.126
			C77.376,144.869,77.433,144.754,77.433,144.605z M77.651,146.494c0-0.212-0.06-0.36-0.179-0.446
			c-0.119-0.085-0.296-0.128-0.531-0.128h-0.823v1.118h0.849c0.215,0,0.382-0.048,0.503-0.146
			C77.59,146.795,77.651,146.663,77.651,146.494z"/>
		<path fill="#126957" d="M84.719,145.576c0,0.804-0.22,1.437-0.66,1.899s-1.061,0.694-1.865,0.694c-0.798,0-1.418-0.231-1.86-0.694
			s-0.664-1.096-0.664-1.899c0-0.813,0.222-1.448,0.664-1.908s1.063-0.69,1.86-0.69c0.801,0,1.421,0.231,1.863,0.694
			C84.498,144.135,84.719,144.77,84.719,145.576z M83.156,145.585c0-0.29-0.024-0.532-0.072-0.725
			c-0.048-0.193-0.114-0.348-0.198-0.464c-0.09-0.122-0.191-0.206-0.305-0.255c-0.113-0.048-0.242-0.071-0.387-0.071
			c-0.136,0-0.26,0.021-0.37,0.063c-0.11,0.042-0.211,0.122-0.305,0.241c-0.087,0.113-0.156,0.269-0.208,0.466
			s-0.079,0.445-0.079,0.744s0.025,0.54,0.074,0.725s0.113,0.331,0.191,0.441c0.081,0.113,0.183,0.196,0.305,0.248
			c0.122,0.053,0.257,0.078,0.405,0.078c0.122,0,0.246-0.025,0.372-0.078c0.126-0.052,0.227-0.131,0.302-0.234
			c0.09-0.125,0.158-0.275,0.205-0.451C83.133,146.139,83.156,145.896,83.156,145.585z"/>
		<path fill="#126957" d="M89.715,143.905c0.186,0.188,0.332,0.421,0.439,0.698s0.161,0.621,0.161,1.033
			c0,0.764-0.227,1.376-0.681,1.839s-1.067,0.694-1.839,0.694c-0.847,0-1.477-0.274-1.889-0.822
			c-0.412-0.549-0.618-1.37-0.618-2.464c0-0.209,0.01-0.421,0.031-0.638c0.02-0.216,0.066-0.478,0.139-0.785
			c0.061-0.255,0.148-0.51,0.263-0.764s0.251-0.462,0.411-0.625c0.18-0.186,0.425-0.346,0.736-0.48
			c0.31-0.135,0.746-0.229,1.305-0.285c0.264-0.026,0.578-0.048,0.94-0.065c0.362-0.018,0.651-0.028,0.866-0.034v1.145
			c-0.183,0.009-0.35,0.017-0.502,0.023c-0.152,0.008-0.327,0.019-0.524,0.033c-0.122,0.008-0.282,0.022-0.479,0.041
			s-0.365,0.041-0.504,0.067c-0.168,0.035-0.324,0.089-0.468,0.161c-0.144,0.072-0.262,0.168-0.354,0.287
			c-0.07,0.09-0.127,0.21-0.172,0.359s-0.078,0.333-0.098,0.55c0.215-0.153,0.441-0.276,0.679-0.369s0.495-0.14,0.77-0.14
			c0.273,0,0.528,0.045,0.766,0.135S89.538,143.725,89.715,143.905z M88.439,146.804c0.093-0.113,0.167-0.252,0.224-0.416
			s0.085-0.396,0.085-0.698c0-0.352-0.09-0.634-0.27-0.847c-0.18-0.213-0.417-0.32-0.713-0.32c-0.137,0-0.28,0.018-0.431,0.053
			s-0.309,0.099-0.474,0.191c0,0.029-0.001,0.07-0.002,0.124s-0.002,0.103-0.002,0.146c0,0.421,0.013,0.74,0.039,0.958
			s0.084,0.419,0.174,0.604c0.075,0.157,0.177,0.275,0.304,0.357c0.128,0.081,0.276,0.121,0.444,0.121
			c0.096,0,0.202-0.021,0.32-0.064C88.254,146.969,88.355,146.899,88.439,146.804z"/>
		<path fill="#126957" d="M95.816,145.576c0,0.804-0.22,1.437-0.66,1.899s-1.061,0.694-1.865,0.694c-0.798,0-1.418-0.231-1.86-0.694
			s-0.664-1.096-0.664-1.899c0-0.813,0.222-1.448,0.664-1.908s1.063-0.69,1.86-0.69c0.801,0,1.421,0.231,1.863,0.694
			C95.596,144.135,95.816,144.77,95.816,145.576z M94.254,145.585c0-0.29-0.024-0.532-0.072-0.725
			c-0.048-0.193-0.114-0.348-0.198-0.464c-0.09-0.122-0.191-0.206-0.305-0.255c-0.113-0.048-0.242-0.071-0.387-0.071
			c-0.136,0-0.26,0.021-0.37,0.063c-0.11,0.042-0.211,0.122-0.305,0.241c-0.087,0.113-0.156,0.269-0.208,0.466
			s-0.079,0.445-0.079,0.744s0.025,0.54,0.074,0.725s0.113,0.331,0.191,0.441c0.081,0.113,0.183,0.196,0.305,0.248
			c0.122,0.053,0.257,0.078,0.405,0.078c0.122,0,0.246-0.025,0.372-0.078c0.126-0.052,0.227-0.131,0.302-0.234
			c0.09-0.125,0.158-0.275,0.205-0.451C94.23,146.139,94.254,145.896,94.254,145.585z"/>
		<path fill="#126957" d="M101.617,149.228h-1.353V148h-2.829v1.228h-1.354v-2.307h0.353c0.221-0.458,0.397-1.019,0.529-1.68
			c0.132-0.662,0.198-1.365,0.198-2.111h3.974v3.791h0.482V149.228z M99.62,146.921v-2.716h-1.075
			c-0.049,0.543-0.133,1.045-0.25,1.508c-0.117,0.463-0.259,0.865-0.424,1.208H99.62z"/>
		<path fill="#126957" d="M104.895,148.148c-0.923,0-1.631-0.221-2.122-0.662c-0.491-0.44-0.737-1.068-0.737-1.884
			c0-0.798,0.229-1.435,0.688-1.911c0.459-0.476,1.1-0.714,1.924-0.714c0.748,0,1.311,0.202,1.688,0.605
			c0.377,0.403,0.565,0.98,0.565,1.732v0.548h-3.338c0.015,0.227,0.063,0.416,0.144,0.568s0.188,0.273,0.322,0.363
			c0.13,0.09,0.282,0.154,0.456,0.193c0.175,0.039,0.365,0.059,0.57,0.059c0.178,0,0.352-0.02,0.523-0.059
			c0.17-0.039,0.327-0.091,0.469-0.154c0.125-0.056,0.24-0.114,0.347-0.179c0.106-0.063,0.192-0.12,0.259-0.17h0.161v1.258
			c-0.125,0.05-0.239,0.096-0.342,0.138s-0.244,0.085-0.425,0.128c-0.164,0.044-0.336,0.078-0.511,0.103
			C105.36,148.136,105.146,148.148,104.895,148.148z M105.398,144.945c-0.008-0.322-0.083-0.567-0.224-0.735
			c-0.141-0.169-0.356-0.253-0.646-0.253c-0.297,0-0.527,0.089-0.695,0.266c-0.166,0.177-0.258,0.418-0.275,0.723H105.398z"/>
		<path fill="#126957" d="M112.307,148.018h-1.523v-2.094h-1.576v2.094h-1.523v-4.888h1.523v1.693h1.576v-1.693h1.523V148.018z"/>
	</g>
</g>
<g>
	<g>
		<path fill="#126957" d="M75.349,106.628l-2.163,5.184c-0.128,0.302-0.271,0.54-0.429,0.714s-0.324,0.306-0.499,0.396
			c-0.174,0.09-0.348,0.15-0.522,0.181c-0.174,0.031-0.357,0.046-0.548,0.046c-0.2,0-0.433-0.004-0.699-0.013
			c-0.265-0.009-0.443-0.018-0.533-0.026v-1.375h0.1c0.026,0.006,0.067,0.013,0.122,0.021s0.125,0.018,0.209,0.026
			c0.069,0.006,0.145,0.012,0.226,0.018c0.082,0.006,0.155,0.009,0.222,0.009c0.194,0,0.378-0.024,0.55-0.072
			c0.173-0.048,0.288-0.13,0.346-0.246l-2.398-4.861h1.758l1.388,3.038l1.175-3.038H75.349z"/>
		<path fill="#126957" d="M80.192,113.108h-1.523v-1.68c-0.211,0.049-0.44,0.094-0.685,0.133c-0.246,0.039-0.491,0.059-0.738,0.059
			c-0.221,0-0.426-0.027-0.616-0.083c-0.19-0.055-0.356-0.145-0.499-0.27c-0.142-0.119-0.253-0.274-0.333-0.466
			c-0.08-0.191-0.12-0.419-0.12-0.684v-1.897h1.532v1.114c0,0.2,0.008,0.369,0.026,0.505c0.018,0.137,0.06,0.257,0.126,0.361
			c0.064,0.099,0.159,0.174,0.285,0.227c0.126,0.052,0.303,0.078,0.529,0.078c0.061,0,0.142-0.004,0.244-0.011
			c0.102-0.008,0.185-0.017,0.248-0.028v-2.246h1.523V113.108z"/>
		<path fill="#126957" d="M84.052,112.591c-0.104,0.087-0.198,0.165-0.28,0.234c-0.083,0.07-0.194,0.14-0.333,0.209
			c-0.137,0.067-0.269,0.118-0.398,0.152c-0.129,0.035-0.31,0.053-0.542,0.053c-0.433,0-0.792-0.146-1.077-0.436
			c-0.286-0.29-0.429-0.655-0.429-1.097c0-0.362,0.072-0.655,0.217-0.879s0.354-0.4,0.627-0.531
			c0.275-0.134,0.605-0.227,0.988-0.278c0.383-0.053,0.795-0.093,1.236-0.122v-0.026c0-0.27-0.099-0.456-0.298-0.559
			c-0.199-0.104-0.497-0.154-0.895-0.154c-0.18,0-0.39,0.032-0.631,0.098c-0.241,0.065-0.476,0.148-0.705,0.25h-0.131v-1.18
			c0.151-0.043,0.395-0.095,0.731-0.154c0.336-0.06,0.676-0.089,1.018-0.089c0.842,0,1.455,0.14,1.839,0.42s0.577,0.707,0.577,1.281
			v3.325h-1.515V112.591z M84.052,111.833v-1.019c-0.258,0.026-0.467,0.049-0.626,0.068c-0.16,0.019-0.316,0.056-0.47,0.11
			c-0.133,0.047-0.237,0.117-0.311,0.211c-0.074,0.095-0.111,0.22-0.111,0.377c0,0.229,0.062,0.387,0.185,0.472
			c0.123,0.086,0.305,0.129,0.546,0.129c0.133,0,0.27-0.03,0.409-0.092C83.813,112.029,83.939,111.943,84.052,111.833z"/>
		<path fill="#126957" d="M89.092,113.239c-0.403,0-0.772-0.051-1.107-0.152s-0.626-0.259-0.873-0.471
			c-0.244-0.211-0.434-0.478-0.57-0.798c-0.136-0.321-0.205-0.699-0.205-1.134c0-0.468,0.074-0.865,0.222-1.192
			c0.148-0.328,0.348-0.598,0.601-0.81c0.244-0.203,0.53-0.354,0.859-0.451c0.33-0.097,0.672-0.146,1.029-0.146
			c0.27,0,0.54,0.031,0.81,0.094s0.541,0.162,0.814,0.298v1.306h-0.196c-0.061-0.058-0.136-0.122-0.224-0.191
			c-0.089-0.069-0.185-0.133-0.29-0.191c-0.11-0.061-0.235-0.112-0.375-0.154c-0.139-0.042-0.294-0.063-0.465-0.063
			c-0.389,0-0.69,0.136-0.903,0.407c-0.213,0.271-0.32,0.636-0.32,1.095c0,0.49,0.114,0.855,0.342,1.097
			c0.228,0.24,0.53,0.361,0.907,0.361c0.191,0,0.36-0.022,0.505-0.065c0.145-0.044,0.27-0.096,0.375-0.157
			c0.102-0.061,0.188-0.124,0.261-0.188c0.073-0.065,0.135-0.124,0.188-0.177h0.196v1.306c-0.087,0.038-0.188,0.081-0.303,0.131
			c-0.114,0.049-0.231,0.09-0.35,0.121c-0.148,0.041-0.287,0.072-0.416,0.094C89.474,113.229,89.304,113.239,89.092,113.239z"/>
		<path fill="#126957" d="M95.407,109.283h-1.515v3.825h-1.523v-3.825h-1.515v-1.063h4.552V109.283z"/>
		<path fill="#126957" d="M100.726,110.667c0,0.804-0.22,1.437-0.66,1.899s-1.061,0.694-1.865,0.694
			c-0.798,0-1.418-0.231-1.86-0.694s-0.664-1.096-0.664-1.899c0-0.813,0.222-1.448,0.664-1.908s1.063-0.69,1.86-0.69
			c0.801,0,1.421,0.231,1.863,0.694C100.505,109.226,100.726,109.86,100.726,110.667z M99.163,110.676
			c0-0.29-0.024-0.532-0.072-0.725c-0.048-0.193-0.114-0.348-0.198-0.464c-0.09-0.122-0.191-0.206-0.305-0.255
			c-0.113-0.048-0.242-0.071-0.387-0.071c-0.136,0-0.26,0.021-0.37,0.063c-0.11,0.042-0.211,0.122-0.305,0.241
			c-0.087,0.113-0.156,0.269-0.208,0.466s-0.079,0.445-0.079,0.744s0.025,0.54,0.074,0.725s0.113,0.331,0.191,0.441
			c0.081,0.113,0.183,0.196,0.305,0.248c0.122,0.053,0.257,0.078,0.405,0.078c0.122,0,0.246-0.025,0.372-0.078
			c0.126-0.052,0.227-0.131,0.302-0.234c0.09-0.125,0.158-0.275,0.205-0.451C99.14,111.229,99.163,110.986,99.163,110.676z"/>
		<path fill="#126957" d="M106.361,113.108h-1.754l-1.158-1.937h-0.391v1.937h-1.523v-4.888h1.523v1.963
			c0.215-0.003,0.375-0.034,0.48-0.094c0.105-0.059,0.221-0.217,0.346-0.472c0.041-0.087,0.084-0.183,0.131-0.287
			s0.088-0.197,0.126-0.278c0.153-0.322,0.343-0.543,0.567-0.662c0.226-0.119,0.499-0.179,0.82-0.179
			c0.113,0,0.221,0.002,0.322,0.005s0.175,0.004,0.219,0.004v1.306h-0.297c-0.093,0-0.176,0.019-0.25,0.055
			s-0.139,0.082-0.193,0.137c-0.055,0.059-0.097,0.116-0.125,0.175c-0.027,0.058-0.054,0.114-0.08,0.169
			c-0.066,0.157-0.115,0.269-0.147,0.336c-0.032,0.066-0.089,0.132-0.17,0.195L106.361,113.108z"/>
		<path fill="#126957" d="M73.755,121.38c0,0.281-0.064,0.521-0.193,0.718c-0.129,0.197-0.303,0.355-0.52,0.475
			c-0.209,0.113-0.451,0.195-0.725,0.248c-0.274,0.052-0.568,0.078-0.881,0.078c-0.4,0-0.762-0.037-1.084-0.113
			c-0.322-0.075-0.622-0.164-0.901-0.266v-1.175h0.161c0.218,0.128,0.459,0.236,0.725,0.326c0.266,0.091,0.536,0.136,0.812,0.136
			c0.101,0,0.225-0.008,0.37-0.022s0.258-0.039,0.339-0.073c0.125-0.05,0.213-0.11,0.266-0.181c0.052-0.071,0.078-0.162,0.078-0.272
			c0-0.122-0.029-0.218-0.087-0.289s-0.138-0.124-0.239-0.159s-0.219-0.056-0.353-0.063c-0.133-0.007-0.278-0.011-0.435-0.011h-0.57
			v-0.975h0.435c0.11,0,0.244-0.002,0.4-0.007c0.157-0.004,0.282-0.02,0.375-0.045c0.119-0.032,0.212-0.078,0.278-0.138
			c0.067-0.06,0.1-0.154,0.1-0.285c0-0.093-0.028-0.169-0.084-0.229c-0.057-0.06-0.131-0.106-0.224-0.142
			c-0.079-0.028-0.17-0.05-0.274-0.064s-0.215-0.022-0.331-0.022c-0.212,0-0.438,0.035-0.679,0.104
			c-0.241,0.07-0.46,0.157-0.657,0.262h-0.161v-1.158c0.165-0.052,0.421-0.115,0.768-0.189c0.347-0.073,0.684-0.11,1.012-0.11
			c0.293,0,0.563,0.021,0.81,0.065c0.247,0.043,0.479,0.12,0.696,0.23c0.203,0.104,0.367,0.243,0.492,0.418
			c0.125,0.174,0.187,0.387,0.187,0.64c0,0.258-0.083,0.49-0.248,0.696c-0.165,0.206-0.367,0.345-0.605,0.418v0.039
			c0.302,0.084,0.536,0.224,0.701,0.42C73.673,120.859,73.755,121.099,73.755,121.38z"/>
		<path fill="#126957" d="M77.276,122.246c-0.104,0.087-0.198,0.165-0.28,0.234c-0.083,0.07-0.194,0.14-0.333,0.209
			c-0.137,0.067-0.269,0.118-0.398,0.152c-0.129,0.035-0.31,0.053-0.542,0.053c-0.433,0-0.792-0.146-1.077-0.436
			c-0.286-0.29-0.429-0.655-0.429-1.097c0-0.362,0.072-0.655,0.217-0.879s0.354-0.4,0.627-0.531
			c0.275-0.134,0.605-0.227,0.988-0.278c0.383-0.053,0.795-0.093,1.236-0.122v-0.026c0-0.27-0.099-0.456-0.298-0.559
			c-0.199-0.104-0.497-0.154-0.895-0.154c-0.18,0-0.39,0.032-0.631,0.098c-0.241,0.065-0.476,0.148-0.705,0.25h-0.131v-1.18
			c0.151-0.043,0.395-0.095,0.731-0.154c0.336-0.06,0.676-0.089,1.018-0.089c0.842,0,1.455,0.14,1.839,0.42s0.577,0.707,0.577,1.281
			v3.325h-1.515V122.246z M77.276,121.488v-1.019c-0.258,0.026-0.467,0.049-0.626,0.068c-0.16,0.019-0.316,0.056-0.47,0.11
			c-0.133,0.047-0.237,0.117-0.311,0.211c-0.074,0.095-0.111,0.22-0.111,0.377c0,0.229,0.062,0.387,0.185,0.472
			c0.123,0.086,0.305,0.129,0.546,0.129c0.133,0,0.27-0.03,0.409-0.092C77.037,121.685,77.164,121.599,77.276,121.488z"/>
		<path fill="#126957" d="M84.105,118.651c0.186,0.188,0.332,0.421,0.439,0.698s0.161,0.621,0.161,1.033
			c0,0.764-0.227,1.376-0.681,1.839s-1.067,0.694-1.839,0.694c-0.847,0-1.477-0.274-1.889-0.822
			c-0.412-0.549-0.618-1.37-0.618-2.464c0-0.209,0.01-0.421,0.031-0.638c0.02-0.216,0.066-0.478,0.139-0.785
			c0.061-0.255,0.148-0.51,0.263-0.764s0.251-0.462,0.411-0.625c0.18-0.186,0.425-0.346,0.736-0.48
			c0.31-0.135,0.746-0.229,1.305-0.285c0.264-0.026,0.578-0.048,0.94-0.065c0.362-0.018,0.651-0.028,0.866-0.034v1.145
			c-0.183,0.009-0.35,0.017-0.502,0.023c-0.152,0.008-0.327,0.019-0.524,0.033c-0.122,0.008-0.282,0.022-0.479,0.041
			s-0.365,0.041-0.504,0.067c-0.168,0.035-0.324,0.089-0.468,0.161c-0.144,0.072-0.262,0.168-0.354,0.287
			c-0.07,0.09-0.127,0.21-0.172,0.359s-0.078,0.333-0.098,0.55c0.215-0.153,0.441-0.276,0.679-0.369s0.495-0.14,0.77-0.14
			c0.273,0,0.528,0.045,0.766,0.135S83.928,118.471,84.105,118.651z M82.83,121.55c0.093-0.113,0.167-0.252,0.224-0.416
			s0.085-0.396,0.085-0.698c0-0.352-0.09-0.634-0.27-0.847c-0.18-0.213-0.417-0.32-0.713-0.32c-0.137,0-0.28,0.018-0.431,0.053
			s-0.309,0.099-0.474,0.191c0,0.029-0.001,0.07-0.002,0.124s-0.002,0.103-0.002,0.146c0,0.421,0.013,0.74,0.039,0.958
			s0.084,0.419,0.174,0.604c0.075,0.157,0.177,0.275,0.304,0.357c0.128,0.081,0.276,0.121,0.444,0.121
			c0.096,0,0.202-0.021,0.32-0.064C82.645,121.715,82.746,121.646,82.83,121.55z"/>
		<path fill="#126957" d="M90.307,120.253c0,0.78-0.198,1.41-0.594,1.889s-0.884,0.718-1.464,0.718
			c-0.244,0-0.456-0.027-0.636-0.083c-0.18-0.055-0.371-0.141-0.574-0.257v2.037h-1.523v-6.681h1.523v0.51
			c0.223-0.191,0.451-0.347,0.683-0.466c0.232-0.119,0.5-0.179,0.805-0.179c0.566,0,1.004,0.225,1.314,0.675
			S90.307,119.478,90.307,120.253z M88.749,120.283c0-0.476-0.073-0.821-0.22-1.036c-0.147-0.215-0.375-0.322-0.686-0.322
			c-0.137,0-0.272,0.022-0.407,0.065c-0.135,0.044-0.268,0.109-0.398,0.196v2.459c0.081,0.034,0.17,0.06,0.268,0.073
			c0.097,0.015,0.212,0.022,0.346,0.022c0.371,0,0.647-0.121,0.827-0.363S88.749,120.771,88.749,120.283z"/>
		<path fill="#126957" d="M95.816,120.322c0,0.804-0.22,1.437-0.66,1.899s-1.061,0.694-1.865,0.694c-0.798,0-1.418-0.231-1.86-0.694
			s-0.664-1.096-0.664-1.899c0-0.813,0.222-1.448,0.664-1.908s1.063-0.69,1.86-0.69c0.801,0,1.421,0.231,1.863,0.694
			C95.596,118.881,95.816,119.516,95.816,120.322z M94.254,120.331c0-0.29-0.024-0.532-0.072-0.725
			c-0.048-0.193-0.114-0.348-0.198-0.464c-0.09-0.122-0.191-0.206-0.305-0.255c-0.113-0.048-0.242-0.071-0.387-0.071
			c-0.136,0-0.26,0.021-0.37,0.063c-0.11,0.042-0.211,0.122-0.305,0.241c-0.087,0.113-0.156,0.269-0.208,0.466
			s-0.079,0.445-0.079,0.744s0.025,0.54,0.074,0.725s0.113,0.331,0.191,0.441c0.081,0.113,0.183,0.196,0.305,0.248
			c0.122,0.053,0.257,0.078,0.405,0.078c0.122,0,0.246-0.025,0.372-0.078c0.126-0.052,0.227-0.131,0.302-0.234
			c0.09-0.125,0.158-0.275,0.205-0.451C94.23,120.885,94.254,120.642,94.254,120.331z"/>
		<path fill="#126957" d="M101.248,122.764h-1.524v-2.094h-1.575v2.094h-1.523v-4.888h1.523v1.693h1.575v-1.693h1.524V122.764z"/>
		<path fill="#126957" d="M107.058,122.764h-1.497v-2.968l-1.871,2.968h-1.275v-4.888h1.496v2.655l1.715-2.655h1.433V122.764z"/>
		<path fill="#126957" d="M113.016,120.253c0,0.78-0.198,1.41-0.594,1.889c-0.396,0.479-0.885,0.718-1.465,0.718
			c-0.244,0-0.455-0.027-0.636-0.083c-0.18-0.055-0.371-0.141-0.574-0.257v2.037h-1.523v-6.681h1.523v0.51
			c0.224-0.191,0.451-0.347,0.683-0.466c0.232-0.119,0.501-0.179,0.806-0.179c0.565,0,1.004,0.225,1.314,0.675
			S113.016,119.478,113.016,120.253z M111.457,120.283c0-0.476-0.072-0.821-0.219-1.036c-0.147-0.215-0.375-0.322-0.686-0.322
			c-0.137,0-0.272,0.022-0.408,0.065c-0.135,0.044-0.268,0.109-0.397,0.196v2.459c0.081,0.034,0.171,0.06,0.268,0.073
			c0.097,0.015,0.212,0.022,0.347,0.022c0.371,0,0.646-0.121,0.826-0.363S111.457,120.771,111.457,120.283z"/>
		<path fill="#126957" d="M118.525,120.322c0,0.804-0.221,1.437-0.66,1.899s-1.061,0.694-1.864,0.694
			c-0.798,0-1.418-0.231-1.86-0.694s-0.664-1.096-0.664-1.899c0-0.813,0.222-1.448,0.664-1.908s1.063-0.69,1.86-0.69
			c0.801,0,1.421,0.231,1.862,0.694S118.525,119.516,118.525,120.322z M116.963,120.331c0-0.29-0.023-0.532-0.072-0.725
			c-0.047-0.193-0.113-0.348-0.197-0.464c-0.09-0.122-0.191-0.206-0.305-0.255c-0.113-0.048-0.242-0.071-0.388-0.071
			c-0.136,0-0.26,0.021-0.37,0.063c-0.109,0.042-0.211,0.122-0.305,0.241c-0.087,0.113-0.156,0.269-0.209,0.466
			c-0.052,0.197-0.078,0.445-0.078,0.744s0.025,0.54,0.074,0.725s0.113,0.331,0.191,0.441c0.081,0.113,0.183,0.196,0.305,0.248
			c0.121,0.053,0.257,0.078,0.404,0.078c0.122,0,0.246-0.025,0.373-0.078c0.125-0.052,0.227-0.131,0.302-0.234
			c0.09-0.125,0.158-0.275,0.204-0.451C116.939,120.885,116.963,120.642,116.963,120.331z"/>
		<path fill="#126957" d="M123.93,121.288c0,0.235-0.046,0.444-0.139,0.627s-0.217,0.335-0.374,0.457
			c-0.197,0.153-0.405,0.258-0.624,0.312c-0.22,0.054-0.48,0.08-0.781,0.08h-2.678v-4.888h2.551c0.357,0,0.619,0.012,0.788,0.035
			c0.168,0.023,0.333,0.08,0.496,0.17c0.171,0.093,0.299,0.216,0.383,0.37c0.084,0.153,0.126,0.336,0.126,0.548
			c0,0.244-0.064,0.456-0.195,0.636s-0.295,0.317-0.492,0.413v0.048c0.27,0.067,0.494,0.201,0.672,0.402
			C123.842,120.7,123.93,120.964,123.93,121.288z M122.159,119.352c0-0.188-0.055-0.319-0.163-0.392
			c-0.109-0.072-0.282-0.108-0.52-0.108h-0.632v0.975h0.657c0.212,0,0.375-0.042,0.487-0.126
			C122.103,119.615,122.159,119.5,122.159,119.352z M122.377,121.24c0-0.212-0.06-0.36-0.179-0.446
			c-0.119-0.085-0.296-0.128-0.53-0.128h-0.823v1.118h0.849c0.215,0,0.383-0.048,0.503-0.146S122.377,121.409,122.377,121.24z"/>
		<path fill="#126957" d="M127.446,122.246c-0.104,0.087-0.198,0.165-0.28,0.234c-0.083,0.07-0.193,0.14-0.333,0.209
			c-0.137,0.067-0.269,0.118-0.398,0.152c-0.129,0.035-0.31,0.053-0.542,0.053c-0.432,0-0.791-0.146-1.076-0.436
			c-0.287-0.29-0.43-0.655-0.43-1.097c0-0.362,0.072-0.655,0.218-0.879s0.354-0.4,0.627-0.531c0.275-0.134,0.604-0.227,0.987-0.278
			c0.383-0.053,0.795-0.093,1.236-0.122v-0.026c0-0.27-0.1-0.456-0.298-0.559c-0.198-0.104-0.497-0.154-0.895-0.154
			c-0.18,0-0.39,0.032-0.631,0.098s-0.476,0.148-0.705,0.25h-0.131v-1.18c0.151-0.043,0.395-0.095,0.731-0.154
			c0.336-0.06,0.676-0.089,1.018-0.089c0.842,0,1.455,0.14,1.84,0.42c0.384,0.28,0.576,0.707,0.576,1.281v3.325h-1.515V122.246z
			 M127.446,121.488v-1.019c-0.258,0.026-0.467,0.049-0.626,0.068c-0.16,0.019-0.316,0.056-0.471,0.11
			c-0.133,0.047-0.236,0.117-0.311,0.211c-0.074,0.095-0.111,0.22-0.111,0.377c0,0.229,0.062,0.387,0.186,0.472
			c0.123,0.086,0.305,0.129,0.545,0.129c0.134,0,0.271-0.03,0.41-0.092C127.207,121.685,127.334,121.599,127.446,121.488z"/>
		<path fill="#126957" d="M134.711,122.764h-1.523v-2.094h-1.576v2.094h-1.523v-4.888h1.523v1.693h1.576v-1.693h1.523V122.764z"/>
	</g>
</g>
<rect x="28.387" y="84.863" fill="#15856E" stroke="#BE1823" stroke-miterlimit="10" width="31.597" height="16.617"/>
<rect x="28.387" y="107.391" fill="#62B880" stroke="#FDEB1B" stroke-miterlimit="10" width="31.597" height="16.619"/>
<rect x="28.387" y="132.15" fill="#62B880" stroke="#04A48F" stroke-miterlimit="10" width="31.597" height="16.618"/>
</svg>
