<?xml version="1.0" encoding="UTF-8" standalone="no"?>
<!-- Created with Inkscape (http://www.inkscape.org/) -->

<svg
   xmlns:osb="http://www.openswatchbook.org/uri/2009/osb"
   xmlns:dc="http://purl.org/dc/elements/1.1/"
   xmlns:cc="http://creativecommons.org/ns#"
   xmlns:rdf="http://www.w3.org/1999/02/22-rdf-syntax-ns#"
   xmlns:svg="http://www.w3.org/2000/svg"
   xmlns="http://www.w3.org/2000/svg"
   xmlns:xlink="http://www.w3.org/1999/xlink"
   xmlns:sodipodi="http://sodipodi.sourceforge.net/DTD/sodipodi-0.dtd"
   xmlns:inkscape="http://www.inkscape.org/namespaces/inkscape"
   id="svg3039"
   version="1.1"
   inkscape:version="0.48.5 r10040"
   width="3507"
   height="2550"
   sodipodi:docname="main.svg"
   enable-background="new">
  <metadata
     id="metadata3045">
    <rdf:RDF>
      <cc:Work
         rdf:about="">
        <dc:format>image/svg+xml</dc:format>
        <dc:type
           rdf:resource="http://purl.org/dc/dcmitype/StillImage" />
        <dc:title />
      </cc:Work>
    </rdf:RDF>
  </metadata>
  <defs
     id="defs3043">
    <linearGradient
       id="linearGradient3840"
       osb:paint="gradient">
      <stop
         style="stop-color:#ff0000;stop-opacity:1;"
         offset="0"
         id="stop3842" />
      <stop
         style="stop-color:#ff0000;stop-opacity:0;"
         offset="1"
         id="stop3844" />
    </linearGradient>
  </defs>
  <sodipodi:namedview
     pagecolor="#ffffff"
     bordercolor="#666666"
     borderopacity="1"
     objecttolerance="10"
     gridtolerance="10"
     guidetolerance="10"
     inkscape:pageopacity="0"
     inkscape:pageshadow="2"
     inkscape:window-width="1668"
     inkscape:window-height="985"
     id="namedview3041"
     showgrid="false"
     inkscape:zoom="1.8101934"
     inkscape:cx="104.48171"
     inkscape:cy="2144.289"
     inkscape:window-x="0"
     inkscape:window-y="27"
     inkscape:window-maximized="1"
     inkscape:current-layer="layer4"
     showguides="true"
     inkscape:guide-bbox="true" />
  <g
     inkscape:groupmode="layer"
     id="layer2"
     inkscape:label="Подложка"
     style="display:inline"
     sodipodi:insensitive="true">
    <image
       width="3505.9041"
       height="2545.6545"
       xlink:href="file:///home/serg/my/projects/michurino-dv.ru/static/svg/plan.jpg"
       id="image3047"
       x="-410.95169"
       y="-202.9303"
       style="fill:none"
       transform="matrix(0.99995773,-0.00919485,0.00922921,0.99995741,0,0)" />
  </g>
  <g
     inkscape:groupmode="layer"
     id="layer1"
     inkscape:label="Границы"
     style="display:inline"
     sodipodi:insensitive="true">
    <path
       style="fill:#fa0000;fill-opacity:0.0813008;stroke:#f00000;stroke-width:3;stroke-linecap:butt;stroke-linejoin:miter;stroke-miterlimit:4;stroke-opacity:1;stroke-dasharray:none"
       d="m 54.18318,144.21198 275.45737,-22.84393 596.42888,-11.38811 61.86837,-5.83847 79.6084,-21.515778 115.5087,-42.249386 11.35,38.431611 -34.0522,23.142073 -169.926,112.38616 106.3074,125.67712 307.6582,364.75359 250.9659,-139.46718 125.4285,214.94793 951.5995,153.08562 10.6252,45.93577 -306.5486,964.969 -13.8259,80.004 -250.1014,75.7211 -17.2006,38.7888 -805.4069,-266.1325 -120.7843,-43.9033 -152.2348,31.5978 -1.7888,7.1445 -59.3418,-18.4819 L 926.36086,1689.2499 54.15762,1199.988 z"
       id="path3051"
       inkscape:connector-curvature="0"
       sodipodi:nodetypes="ccccccccccccccccccccccccccc" />
    <path
       style="fill:#ffffff;fill-opacity:1;stroke:#ff0000;stroke-width:3;stroke-linecap:butt;stroke-linejoin:miter;stroke-miterlimit:4;stroke-opacity:1;stroke-dasharray:none"
       d="m 1429.2016,1481.1163 473.0469,99.2187 -167.7596,358.4124 -489.5283,-229.6205 z"
       id="path2996"
       inkscape:connector-curvature="0"
       sodipodi:nodetypes="ccccc" />
  </g>
  <g
     inkscape:groupmode="layer"
     id="layer3"
     inkscape:label="Дороги"
     style="display:inline"
     sodipodi:insensitive="true">
    <path
       style="fill:none;stroke:#0058ff;stroke-width:3;stroke-linecap:butt;stroke-linejoin:miter;stroke-miterlimit:4;stroke-opacity:1;stroke-dasharray:none;display:inline"
       d="m 54.31014,144.39452 28.97165,-2.63451 2.95294,186.01756 14.72071,17.19924 1000.05066,0.0984 25.5588,30.28455 -108.4155,0.17922 -0.098,310.33223 320.6608,175.58932 297.0743,171.89567 189.1183,-246.04556 43.3402,7.00731 -811.1477,1067.61045 -39.5363,-12.3906 131.7197,-171.2598 -936.26187,-525.9685 0.0707,-776.54497 -158.82141,-0.33803 z"
       id="path3766"
       inkscape:connector-curvature="0"
       sodipodi:nodetypes="ccccccccccccccccccc" />
    <path
       style="fill:none;stroke:#0058ff;stroke-width:3;stroke-linecap:butt;stroke-linejoin:miter;stroke-miterlimit:4;stroke-opacity:1;stroke-dasharray:none"
       d="m 643.86342,375.61279 318.26708,-0.27622 10e-5,341.60715 640.1168,360.47498 -195.1015,254.5071 -766.38981,-430.74761 z"
       id="path3787"
       inkscape:connector-curvature="0"
       sodipodi:nodetypes="ccccccc" />
    <path
       style="fill:none;stroke:#0058ff;stroke-width:3;stroke-linecap:butt;stroke-linejoin:miter;stroke-miterlimit:4;stroke-opacity:1;stroke-dasharray:none"
       d="m 268.00581,375.68184 321.02925,-0.20716 0,559.74686 786.43574,443.42596 -192.2752,255.2272 -915.73478,-514.326 z"
       id="path3789"
       inkscape:connector-curvature="0"
       sodipodi:nodetypes="ccccccc" />
  </g>
  <g
     inkscape:groupmode="layer"
     id="layer4"
     inkscape:label="Участки"
     style="display:inline">
    <path
       style="fill:none;stroke:#000000;stroke-width:1px;stroke-linecap:butt;stroke-linejoin:miter;stroke-opacity:1"
       d="m 54.101563,375 158.984377,0 0,82.8125 -158.984377,0 z"
       id="path3168"
       inkscape:connector-curvature="0" />
    <path
       style="fill:none;stroke:#000000;stroke-width:1px;stroke-linecap:butt;stroke-linejoin:miter;stroke-opacity:1"
       d="m 54.101563,457.61719 158.789067,0 0,98.4375 -158.98438,0 z"
       id="path3170"
       inkscape:connector-curvature="0" />
    <path
       style="fill:none;stroke:#000000;stroke-width:1px;stroke-linecap:butt;stroke-linejoin:miter;stroke-opacity:1"
       d="m 53.710938,555.85937 159.179692,0 0,98.4375 -158.98438,0 z"
       id="path3172"
       inkscape:connector-curvature="0" />
    <path
       style="fill:none;stroke:#000000;stroke-width:1px;stroke-linecap:butt;stroke-linejoin:miter;stroke-opacity:1"
       d="m 53.710938,654.10156 159.179692,0 0,100.78125 -158.98438,0 z"
       id="path3174"
       inkscape:connector-curvature="0" />
    <path
       style="fill:none;stroke:#000000;stroke-width:1px;stroke-linecap:butt;stroke-linejoin:miter;stroke-opacity:1"
       d="m 53.808594,754.6875 159.082036,0 0,98.24219 -158.789067,0 z"
       id="path3176"
       inkscape:connector-curvature="0" />
    <path
       style="fill:none;stroke:#000000;stroke-width:1px;stroke-linecap:butt;stroke-linejoin:miter;stroke-opacity:1"
       d="m 54.003906,852.92969 158.789064,0 0,99.80468 -158.593751,0 z"
       id="path3178"
       inkscape:connector-curvature="0" />
    <path
       style="fill:none;stroke:#000000;stroke-width:1px;stroke-linecap:butt;stroke-linejoin:miter;stroke-opacity:1"
       d="m 54.394531,952.63672 158.496099,0 0,99.60938 -158.691411,0 z"
       id="path3180"
       inkscape:connector-curvature="0" />
    <path
       style="fill:none;stroke:#000000;stroke-width:1px;stroke-linecap:butt;stroke-linejoin:miter;stroke-opacity:1"
       d="m 54.101563,1052.2461 158.593747,0 0,99.5117 -158.496091,0 z"
       id="path3182"
       inkscape:connector-curvature="0" />
    <path
       style="fill:none;stroke:#000000;stroke-width:1px;stroke-linecap:butt;stroke-linejoin:miter;stroke-opacity:1"
       d="m 53.90625,1151.7578 158.59375,0 69.2548,39.1557 -59.46255,103.8208 -168.430601,-94.5901 z"
       id="path3184"
       inkscape:connector-curvature="0"
       sodipodi:nodetypes="cccccc" />
    <path
       style="fill:none;stroke:#000000;stroke-width:1px;stroke-linecap:butt;stroke-linejoin:miter;stroke-opacity:1"
       d="m 281.78956,1190.9002 139.30419,78.8264 -59.47552,103.0146 -139.3526,-77.9902 z"
       id="path3186"
       inkscape:connector-curvature="0"
       sodipodi:nodetypes="ccccc" />
    <path
       style="fill:none;stroke:#000000;stroke-width:1px;stroke-linecap:butt;stroke-linejoin:miter;stroke-opacity:1"
       d="m 420.89844,1269.9219 138.28125,77.1484 -59.31593,102.8812 -138.20039,-77.0567 z"
       id="path3188"
       inkscape:connector-curvature="0"
       sodipodi:nodetypes="ccccc" />
    <path
       style="fill:none;stroke:#000000;stroke-width:1px;stroke-linecap:butt;stroke-linejoin:miter;stroke-opacity:1"
       d="m 559.36959,1346.8664 139.45312,78.3203 -59.39599,103.1471 -139.56099,-78.3826 z"
       id="path3190"
       inkscape:connector-curvature="0"
       sodipodi:nodetypes="ccccc" />
    <path
       style="fill:none;stroke:#000000;stroke-width:1px;stroke-linecap:butt;stroke-linejoin:miter;stroke-opacity:1"
       d="m 698.81196,1425.1899 139.27398,78.1304 -59.59584,103.223 -139.07703,-78.2094 z"
       id="path3192"
       inkscape:connector-curvature="0"
       sodipodi:nodetypes="ccccc" />
    <path
       style="fill:none;stroke:#000000;stroke-width:1px;stroke-linecap:butt;stroke-linejoin:miter;stroke-opacity:1"
       d="m 838.08594,1503.3203 145.11719,81.8359 -56.64063,104.4922 -148.07128,-83.1054 z"
       id="path3194"
       inkscape:connector-curvature="0"
       sodipodi:nodetypes="ccccc" />
    <path
       style="fill:none;stroke:#000000;stroke-width:1px;stroke-linecap:butt;stroke-linejoin:miter;stroke-opacity:1"
       d="m 983.20583,1585.1535 165.91527,93.3621 -132.2266,171.2891 -90.17279,-160.4091 z"
       id="path3196"
       inkscape:connector-curvature="0"
       sodipodi:nodetypes="ccccc" />
    <path
       style="fill:none;stroke:#000000;stroke-width:1px;stroke-linecap:butt;stroke-linejoin:miter;stroke-opacity:1;display:inline"
       d="m 268.28259,375.61918 159.76563,0 0,80.85938 -160.15625,0 z"
       id="path3017"
       inkscape:connector-curvature="0" />
    <path
       style="fill:none;stroke:#000000;stroke-width:1px;stroke-linecap:butt;stroke-linejoin:miter;stroke-opacity:1;display:inline"
       d="m 267.69665,456.28324 160.15625,0 0,100.19532 -159.96093,0 z"
       id="path3019"
       inkscape:connector-curvature="0" />
    <path
       style="fill:none;stroke:#000000;stroke-width:1px;stroke-linecap:butt;stroke-linejoin:miter;stroke-opacity:1;display:inline"
       d="m 267.69665,556.28324 159.96094,0 0,100.19532 -159.76562,0 z"
       id="path3021"
       inkscape:connector-curvature="0" />
    <path
       style="fill:none;stroke:#000000;stroke-width:1px;stroke-linecap:butt;stroke-linejoin:miter;stroke-opacity:1;display:inline"
       d="m 267.88655,656.46772 159.74836,-0.0345 -0.17263,99.45942 -159.57031,0 z"
       id="path3023"
       inkscape:connector-curvature="0"
       sodipodi:nodetypes="ccccc" />
    <path
       style="fill:none;stroke:#000000;stroke-width:1px;stroke-linecap:butt;stroke-linejoin:miter;stroke-opacity:1;display:inline"
       d="m 267.84661,755.69731 159.61567,0 0,97.85156 -159.57031,0 z"
       id="path3025"
       inkscape:connector-curvature="0"
       sodipodi:nodetypes="ccccc" />
    <path
       style="fill:none;stroke:#000000;stroke-width:1px;stroke-linecap:butt;stroke-linejoin:miter;stroke-opacity:1;display:inline"
       d="m 267.89197,853.35356 159.57031,0 0,99.41406 -159.76563,0 z"
       id="path3027"
       inkscape:connector-curvature="0" />
    <path
       style="fill:none;stroke:#000000;stroke-width:1px;stroke-linecap:butt;stroke-linejoin:miter;stroke-opacity:1;display:inline"
       d="m 267.69665,952.57231 159.76563,0 0,75.19539 -159.59609,92.1428 z"
       id="path3029"
       inkscape:connector-curvature="0" />
    <path
       style="fill:none;stroke:#000000;stroke-width:1px;stroke-linecap:butt;stroke-linejoin:miter;stroke-opacity:1;display:inline"
       d="m 427.34005,1027.4631 60.49077,32.0408 -80.18629,138.8867 -139.67972,-78.396 z"
       id="path3031"
       inkscape:connector-curvature="0" />
    <path
       style="fill:none;stroke:#000000;stroke-width:1px;stroke-linecap:butt;stroke-linejoin:miter;stroke-opacity:1;display:inline"
       d="m 487.84758,1059.5207 87.28349,48.6135 -80.59887,138.8009 -86.83785,-48.5648 z"
       id="path3033"
       inkscape:connector-curvature="0"
       sodipodi:nodetypes="ccccc" />
    <path
       style="fill:none;stroke:#000000;stroke-width:1px;stroke-linecap:butt;stroke-linejoin:miter;stroke-opacity:1;display:inline"
       d="m 575.11431,1108.1175 85.62876,49.4378 -79.65491,137.9662 -86.352,-48.4686 z"
       id="path3035"
       inkscape:connector-curvature="0" />
    <path
       style="fill:none;stroke:#000000;stroke-width:1px;stroke-linecap:butt;stroke-linejoin:miter;stroke-opacity:1;display:inline"
       d="m 660.67147,1157.5597 86.2477,49.166 -79.7902,137.6218 -86.05237,-48.8596 z"
       id="path3037"
       inkscape:connector-curvature="0"
       sodipodi:nodetypes="ccccc" />
    <path
       style="fill:none;stroke:#000000;stroke-width:1px;stroke-linecap:butt;stroke-linejoin:miter;stroke-opacity:1;display:inline"
       d="m 746.91917,1206.7257 88.3883,48.6136 -79.8274,138.2652 -88.3378,-49.2268 z"
       id="path3039"
       inkscape:connector-curvature="0"
       sodipodi:nodetypes="ccccc" />
    <path
       style="fill:none;stroke:#000000;stroke-width:1px;stroke-linecap:butt;stroke-linejoin:miter;stroke-opacity:1;display:inline"
       d="m 835.27477,1255.1114 85.5469,47.8515 -80.1151,138.7633 -85.3629,-48.1421 z"
       id="path3041"
       inkscape:connector-curvature="0" />
    <path
       style="fill:none;stroke:#000000;stroke-width:1px;stroke-linecap:butt;stroke-linejoin:miter;stroke-opacity:1;display:inline"
       d="m 920.85287,1303.0265 85.67263,49.6736 -79.38363,137.4965 -86.3101,-48.4132 z"
       id="path3043"
       inkscape:connector-curvature="0"
       sodipodi:nodetypes="ccccc" />
    <path
       style="fill:none;stroke:#000000;stroke-width:1px;stroke-linecap:butt;stroke-linejoin:miter;stroke-opacity:1;display:inline"
       d="m 1006.5638,1352.6699 86.7272,48.7863 -79.3133,137.2516 -86.81193,-48.5007 z"
       id="path3045"
       inkscape:connector-curvature="0"
       sodipodi:nodetypes="ccccc" />
    <path
       style="fill:none;stroke:#000000;stroke-width:1px;stroke-linecap:butt;stroke-linejoin:miter;stroke-opacity:1;display:inline"
       d="m 1093.5672,1401.4562 88.6645,49.9947 -79.4442,137.6925 -88.8145,-50.4293 z"
       id="path3047"
       inkscape:connector-curvature="0"
       sodipodi:nodetypes="ccccc" />
    <path
       style="fill:none;stroke:#000000;stroke-width:1px;stroke-linecap:butt;stroke-linejoin:miter;stroke-opacity:1;display:inline"
       d="m 1182.0936,1451.5199 97.6415,54.8975 -96.3985,127.8868 -80.5422,-45.1523 z"
       id="path3049"
       inkscape:connector-curvature="0"
       sodipodi:nodetypes="ccccc" />
    <text
       xml:space="preserve"
       style="font-size:40px;font-style:normal;font-weight:normal;line-height:0%;letter-spacing:0px;word-spacing:0px;fill:#000000;fill-opacity:1;stroke:none;font-family:Sans"
       x="134.13341"
       y="424.81271"
       id="text3139"
       sodipodi:linespacing="0%"><tspan
         sodipodi:role="line"
         id="tspan3141"
         x="134.13341"
         y="424.81271"
         style="font-size:28px;text-align:center;line-height:0%;text-anchor:middle;fill:#ff0000;fill-opacity:1">1000</tspan></text>
  </g>
</svg>
